<?xml version="1.0" encoding="UTF-8" standalone="no"?>
<!-- Created with Inkscape (http://www.inkscape.org/) -->

<svg
   width="3.5in"
   height="2in"
   viewBox="0 0 88.900005 50.800001"
   version="1.1"
   id="svg3442"
   inkscape:version="1.1.1 (3bf5ae0d25, 2021-09-20)"
   sodipodi:docname="Card_AFace.svg"
   xmlns:inkscape="http://www.inkscape.org/namespaces/inkscape"
   xmlns:sodipodi="http://sodipodi.sourceforge.net/DTD/sodipodi-0.dtd"
   xmlns="http://www.w3.org/2000/svg"
   xmlns:svg="http://www.w3.org/2000/svg">
  <sodipodi:namedview
     id="namedview3444"
     pagecolor="#ffffff"
     bordercolor="#666666"
     borderopacity="1.0"
     inkscape:pageshadow="2"
     inkscape:pageopacity="0.0"
     inkscape:pagecheckerboard="0"
     inkscape:document-units="mm"
     showgrid="false"
     units="in"
     inkscape:snap-bbox="true"
     inkscape:bbox-paths="true"
     inkscape:bbox-nodes="true"
     inkscape:snap-bbox-edge-midpoints="true"
     inkscape:snap-bbox-midpoints="true"
     inkscape:object-paths="true"
     inkscape:snap-intersection-paths="true"
     inkscape:snap-smooth-nodes="true"
     inkscape:snap-midpoints="true"
     inkscape:snap-object-midpoints="true"
     inkscape:snap-center="true"
     inkscape:snap-text-baseline="true"
     inkscape:snap-page="true"
     showguides="true"
     inkscape:guide-bbox="true"
     inkscape:zoom="2.9291246"
     inkscape:cx="147.82574"
     inkscape:cy="113.85654"
     inkscape:window-width="2560"
     inkscape:window-height="1017"
     inkscape:window-x="2552"
     inkscape:window-y="-8"
     inkscape:window-maximized="1"
     inkscape:current-layer="layer1"
     inkscape:snap-global="true">
    <sodipodi:guide
       position="83.900006,5.0000009"
       orientation="0,-1"
       id="guide4372" />
    <sodipodi:guide
       position="5.0000003,45.800001"
       orientation="0,-1"
       id="guide4374" />
    <sodipodi:guide
       position="5.0000003,48.300001"
       orientation="1,0"
       id="guide4376" />
    <sodipodi:guide
       position="83.900006,5.0000008"
       orientation="1,0"
       id="guide4620" />
  </sodipodi:namedview>
  <defs
     id="defs3439" />
  <g
     inkscape:label="Layer 1"
     inkscape:groupmode="layer"
     id="layer1">
    <path
       id="path1099"
       style="font-size:11.4922px;line-height:1.25;font-family:sans-serif;-inkscape-font-specification:'sans-serif, Normal';font-variant-ligatures:none;text-align:center;text-anchor:middle;fill:#e5e5e5;fill-opacity:1;stroke-width:0.264582"
       d="m 10.111011,26.882079 -2.3182051,1.122929 0.8588624,8.892481 1.9549197,-0.946713 -0.186035,-1.606103 3.040641,-1.472261 1.139982,1.143598 1.954403,-0.946711 z m -0.3007572,2.327508 2.4835692,2.501138 -2.065507,1.000456 z" />
    <path
       style="font-size:11.4922px;line-height:1.25;font-family:sans-serif;-inkscape-font-specification:'sans-serif, Normal';font-variant-ligatures:none;text-align:center;text-anchor:middle;fill:#e5e5e5;fill-opacity:1;stroke-width:0.264582"
       d="m 20.660754,21.772314 -1.843298,0.892969 2.504757,5.171259 -5.247226,-3.843175 -2.171443,1.051616 3.651973,7.540108 1.843299,-0.892969 -2.504757,-5.17126 5.247225,3.843176 2.171444,-1.051616 z"
       id="path1097" />
    <path
       style="font-size:11.4922px;line-height:1.25;font-family:sans-serif;-inkscape-font-specification:'sans-serif, Normal';font-variant-ligatures:none;text-align:center;text-anchor:middle;fill:#e5e5e5;fill-opacity:1;stroke-width:0.264582"
       d="m 27.92181,18.548738 c -0.528326,0.102092 -1.025891,0.228437 -1.492933,0.379822 -0.468671,0.148018 -0.909829,0.322392 -1.32395,0.522966 -0.909046,0.440282 -1.508162,0.980184 -1.797306,1.619022 -0.289144,0.638838 -0.25202,1.333306 0.111621,2.084111 0.29026,0.599297 0.694324,0.992147 1.212329,1.177706 0.521372,0.183927 1.19844,0.173691 2.030883,-0.02997 l 0.833024,-0.19792 c 0.506813,-0.120767 0.867082,-0.153779 1.080556,-0.09922 0.216839,0.05293 0.382463,0.19737 0.49661,0.433048 0.127193,0.262614 0.11213,0.519316 -0.04496,0.769979 -0.157091,0.250663 -0.448077,0.478731 -0.8723,0.684196 -0.417486,0.202204 -0.882658,0.348679 -1.39578,0.43925 -0.511385,0.08557 -1.06996,0.116744 -1.675349,0.09405 l 0.7953,1.641244 c 0.567884,-0.05475 1.114208,-0.153308 1.639694,-0.29559 0.525487,-0.142282 1.027758,-0.329134 1.50585,-0.560689 1.013418,-0.490834 1.667827,-1.057022 1.963706,-1.699121 0.297611,-0.647097 0.245163,-1.386344 -0.157615,-2.217953 -0.306568,-0.632965 -0.719871,-1.035998 -1.239716,-1.208195 -0.519848,-0.172196 -1.239682,-0.138994 -2.159558,0.0987 l -0.90899,0.234095 c -0.433056,0.109985 -0.752244,0.146245 -0.957564,0.10852 -0.203584,-0.04272 -0.354328,-0.164892 -0.452168,-0.366903 -0.130455,-0.269347 -0.115804,-0.522011 0.04444,-0.757576 0.160246,-0.235565 0.472787,-0.465881 0.937411,-0.690914 0.350151,-0.16959 0.745362,-0.302424 1.184941,-0.398942 0.439578,-0.09652 0.911092,-0.152551 1.414899,-0.167948 z"
       id="path1095" />
    <path
       style="font-size:11.4922px;line-height:1.25;font-family:sans-serif;-inkscape-font-specification:'sans-serif, Normal';font-variant-ligatures:none;text-align:center;text-anchor:middle;fill:#e5e5e5;fill-opacity:1;stroke-width:0.264582"
       d="m 40.144837,12.335681 -1.848466,0.895036 1.350822,6.110738 -3.94653,-4.853451 -1.873787,0.907439 1.361156,6.106087 -3.956864,-4.8488 -1.863453,0.902787 5.44463,6.671428 2.242241,-1.085722 -1.422652,-6.387724 4.14445,5.068941 2.242756,-1.085722 z"
       id="path1093" />
    <path
       style="font-size:11.4922px;line-height:1.25;font-family:sans-serif;-inkscape-font-specification:'sans-serif, Normal';font-variant-ligatures:none;text-align:center;text-anchor:middle;fill:#e5e5e5;fill-opacity:1;stroke-width:0.264582"
       d="m 46.66485,9.1777343 -5.247224,2.5414467 3.651456,7.540108 5.358331,-2.59519 -0.711586,-1.469678 -3.413744,1.653646 -0.836642,-1.727543 3.105753,-1.504301 -0.711583,-1.469678 -3.106272,1.504301 -0.679545,-1.403532 3.302643,-1.599902 z"
       id="path1091" />
    <path
       id="text2433"
       style="font-size:11.4922px;line-height:1.25;font-family:sans-serif;-inkscape-font-specification:'sans-serif, Normal';font-variant-ligatures:none;text-align:center;text-anchor:middle;fill:#e5e5e5;fill-opacity:1;stroke-width:0.264582"
       d="m 53.506295,6.2714517 c -0.04326,2.25e-5 -0.08707,0.00124 -0.131775,0.00362 -0.536493,0.02837 -1.177452,0.2231565 -1.922365,0.5839436 l -2.969326,1.4381551 3.651972,7.5401086 1.944068,-0.941545 -1.381828,-2.853573 0.550354,-0.26665 c 0.316484,-0.153283 0.602425,-0.206402 0.85783,-0.15968 0.258765,0.04509 0.572182,0.211278 0.939993,0.498677 l 1.826762,1.428337 2.070159,-1.00304 -2.092381,-1.629874 c -0.425834,-0.329959 -0.796197,-0.549497 -1.111041,-0.658875 -0.313108,-0.114376 -0.617275,-0.137463 -0.912606,-0.06925 0.411443,-0.3863251 0.658974,-0.7973719 0.743106,-1.2329997 0.0875,-0.4372586 0.01087,-0.9052398 -0.230476,-1.403532 C 54.989774,6.8247746 54.502359,6.4107406 53.876297,6.3024569 53.759544,6.2818485 53.636081,6.271384 53.506295,6.2714517 Z m -0.797369,1.8727539 c 0.07174,-4.498e-4 0.138282,0.00742 0.199988,0.023254 0.250192,0.061715 0.458441,0.2642973 0.624768,0.6077148 0.16796,0.3467841 0.199628,0.6390153 0.09457,0.876949 -0.101696,0.2363028 -0.356389,0.4532946 -0.763778,0.6506066 L 52.046436,10.698571 51.109541,8.7643225 51.927579,8.368481 C 52.23312,8.2204972 52.493703,8.145569 52.708926,8.1442056 Z" />
  </g>
</svg>
